<?xml version="1.0" encoding="UTF-8"?>
<svg id="Layer_1" data-name="Layer 1" xmlns="http://www.w3.org/2000/svg" viewBox="0 0 1021 772">
  <defs>
    <style>
      .cls-1 {
        fill: #000;
      }

      .cls-1, .cls-2 {
        stroke-width: 0px;
      }

      .cls-2 {
        fill: #fff;
      }
    </style>
  </defs>
  <path class="cls-2" d="M510.5.07C679.46.07,848.41.08,1017.37,0c2.96,0,3.63.67,3.63,3.63-.08,254.91-.08,509.82,0,764.74,0,2.96-.67,3.63-3.63,3.63-337.91-.08-675.82-.08-1013.74,0-2.96,0-3.63-.67-3.63-3.63C.08,513.46.08,258.54,0,3.63,0,.67.67,0,3.63,0c168.96.08,337.91.07,506.87.07ZM104.12,390.03c.34,4.86.69,9.71,1.03,14.57,1.44,20.51,4.35,40.78,10.61,60.42,2.29,7.17,2.96,14.68,5.35,21.8,3.82,11.37,9.06,22.04,14.63,32.67,7.51,14.35,15.17,28.6,22.87,42.84,7.88,14.59,20.42,24.41,32,35.35,5.66,5.35,12.64,8.91,18.52,14.06,5.38,4.72,11.95,8.05,17.1,13.18.54.53,1.32.91,2.06,1.13,4.03,1.18,7.82,2.5,11.28,5.26,8.61,6.86,19.27,10.1,29.01,14.87,12.81,6.27,26.53,10.68,39.92,15.72,11.79,4.44,23.9,8.13,35.45,13.12,10.8,4.67,21.98,8.44,33.35,10.26,16.12,2.57,32.33,6.47,48.95,4.1,1.13-.16,2.39.03,3.51.35,3.11.91,6.23.6,9.4.54,12.24-.23,24.41-1.7,36.62-2.11,8.58-.28,17.05-1.04,25.46-2.74,4.25-.86,8.61-1.8,12.89-1.71,10.9.23,21.73,1.35,32.69.58,15.79-1.11,31.53-2.86,46.82-6.63,12.13-2.99,24.45-5.01,36.54-8.18,8.9-2.33,18.01-4.21,26.59-7.39,19.98-7.43,39.28-16.33,56.68-29.01,3.81-2.78,6.96-6.42,11.15-8.6,4.57-2.39,9.02-4.95,12.85-8.4,12.11-10.93,25.37-20.48,37.63-31.23,5.67-4.98,12.4-8.47,17.99-13.77,6.36-6.04,12.28-12.63,19.27-17.99,5.32-4.08,7.72-10.23,11.48-15.42,5.9-8.13,12.12-16.02,18.05-24.11,7.19-9.81,13.2-20.4,20.91-29.92,11.62-14.34,18.98-31.37,26.8-48.05,6.15-13.14,8.6-27.27,12.58-41,2.95-10.19,3.25-20.74,3.4-31.25.07-4.62,1.36-9.3.71-13.76-2.13-14.54-2.63-29.38-7.65-43.44-2.16-6.06-3.19-12.53-5.53-18.5-5.04-12.85-11.95-24.82-18.54-36.91-6.01-11.04-12.87-21.62-18.82-32.7-3.2-5.95-7.47-11.04-11.11-16.62-4.61-7.06-9.64-13.73-15.59-19.71-2.23-2.24-4.46-4.48-6.65-6.75-7.92-8.2-15.62-16.63-23.81-24.56-7.18-6.95-15.46-12.61-23.46-18.59-10.34-7.74-21.5-14.2-32.22-21.35-9.54-6.37-21.23-6.57-31.43-11.1-5.64-2.51-11.96-2.69-17.83-4.87-8.44-3.14-17.25-5.53-26.09-7.29-11.09-2.21-22.28-3.92-33.4-6.07-9.94-1.92-19.94-4.16-30-4.68-14.84-.76-29.5-3.18-44.44-3.35-14.27-.16-28.58,0-42.94-1.48-15.19-1.57-30.66-1.07-46.11.07-22.19,1.64-44.35,3.2-66.43,6.01-10.72,1.37-21.21,3.95-31.74,6.11-6.26,1.28-12.55,3.43-18.72,5.68-12.87,4.68-25.84,9.11-37.69,15.99-8.3,4.82-16.96,8.93-25.17,13.94-10.19,6.23-20.11,12.85-30.13,19.3-7.84,5.05-15.77,10.05-23.12,15.76-10.04,7.81-19.63,16.2-29.31,24.47-8.2,7.01-15.43,15.09-23.5,22.21-11.11,9.79-21.36,20.32-30.26,32.1-2.68,3.55-6.01,6.57-8.08,10.66-3.08,6.08-6.54,11.98-10.04,17.83-2.5,4.18-4.87,8.37-6.69,12.92-6.03,15.01-11.47,30.22-16.03,45.75-3.63,12.38-7.22,24.85-8,37.7-.64,10.61-2.3,21.22-1.61,31.92ZM463.07,39.69c-1.4-.87-2.93-.74-4.22-.36-4.63,1.38-9.42.72-14.09,1.02-7.01.46-13.99.99-20.93,1.97-4.1.58-8.19,3.48-12.2-.33-.3-.29-1.24.15-1.88.14-5.15-.08-9.93,2.05-14.99,2.5-12.14,1.08-23.81,4.46-35.37,8-10.97,3.36-21.61,7.77-32.44,11.61-3.43,1.22-7.11,1.79-10.28,3.68-13.84,8.26-28.89,14.21-42.62,22.76-6.76,4.21-13.62,8.3-20.19,12.79-11.9,8.14-22.81,17.61-33.79,26.88-12.3,10.38-24.95,20.34-37.36,30.57-9.36,7.72-17.28,16.55-24.44,26.05-5.88,7.81-12.26,15.04-19.02,22.05-4.45,4.62-8.65,9.59-12.26,14.89-4.7,6.89-8.31,14.54-13.11,21.35-6.61,9.38-12.35,19.18-16.45,29.86-3.09,8.04-5.55,16.32-8.45,24.43-4.17,11.65-10.69,22.36-13.45,34.61-1.96,8.69-2.72,17.53-4.29,26.25-1.11,6.19-2.57,12.3-2.21,18.64.15,2.61.86,5.25.64,7.82-.93,11.17.74,22.11,2.08,33.14.8,6.6,2.76,13.13,2.02,19.89-.24,2.19-.96,4.46-.63,6.57,1.02,6.54,2.3,13.06,3.73,19.53,2.35,10.69,3.59,21.88,8.12,31.76,6.14,13.38,9.76,27.87,17.82,40.37,7.32,11.36,11.75,24.17,18.04,36.07,9.43,17.86,20.51,34.41,34.14,49.3,8.06,8.8,16.45,17.29,25.86,24.62,5.97,4.66,12.01,9.25,18.86,12.75,10.36,5.29,19.44,12.67,29.85,18.04,15.78,8.14,32.06,15.18,48.04,22.86,4.02,1.93,8.33,3.26,12.5,4.89,26.75,10.52,54.18,18.47,82.73,22.38,9.47,1.3,18.97,2.79,28.44,3.65,22.91,2.1,45.68,6.11,68.82,5.37,9.48-.3,18.95-.53,28.37-1.81,6.19-.84,12.22-2.38,18.53-2.86,5.18-.39,10.4.2,15.65-1.16,10.05-2.61,20.19-4.98,30.47-6.68,6.54-1.08,13.15-.62,19.69-1.41,19.42-2.34,37.7-9.49,56.65-13.83,6.34-1.45,12.42-4.66,18.1-8.16,3.19-1.96,6.13-4.48,9.53-5.95,11.14-4.83,22.53-9.11,32.26-16.67.91-.71,2.04-1.22,3.15-1.56,12.78-3.95,23.83-11.16,34.82-18.45,1.97-1.31,4.03-2.41,6.07-3.56,7.12-4.02,14.52-7.6,20.8-12.96,7.04-6.01,14.05-12.05,21.17-17.97,7.08-5.89,13.83-12.1,20.27-18.68,3.95-4.04,6.91-9.12,11.76-12.16,7.01-4.4,12.3-10.72,17.96-16.44,9.08-9.17,16.92-19.57,25.25-29.47.97-1.16,2.17-2.57,3.57-1.87,2.87,1.42,4.09-.62,5.31-2.21,6.03-7.86,12.13-15.68,17.83-23.77,11.17-15.84,20.05-33.03,29.25-50.04,4.97-9.18,6.32-19.68,11.03-28.83,5.86-11.4,5.48-24.2,8.87-36.18,2.69-9.52,3.51-19.86,2.94-30.03-.18-3.28-.52-6.69.1-9.86,2.12-10.93,1.23-21.96.89-32.88-.15-4.68-1.5-9.64-2.18-14.51-1.91-13.59-7.41-26.27-11.17-39.37-5.49-19.13-14.5-37.09-26.35-53.37-.45-.62-.68-1.4-1.1-2.05-3.54-5.5-4.89-12.21-9.45-17.14-4.21-4.55-7.66-9.68-10.95-14.87-8.91-14.07-19.61-26.81-29.57-40.08-2.67-3.56-6.65-6.27-8.39-10.37-5.29-12.44-15.47-20.75-25.58-28.34-16.56-12.44-34.45-23.09-52.87-32.69-1.6-.83-3.73-2.12-5.08-1.65-4.04,1.41-7-1.33-9.73-2.67-8.85-4.34-18.03-7.7-27.27-11.01-9.24-3.32-18.85-5.24-28.32-7.68-7.1-1.82-14.28-4.37-21.87-1.83-2.65.89-5.42.16-8.17-.41-4.81-.99-9.71-1.53-15.49-2.4,2.26,1.97,4.07,2.18,5.86,2.56,3.18.68,5.85,2.3,7.89,4.87.8,1.01,1.5,2.45-.13,2.86-3.15.78-6.24,2.89-9.74.66-4.63-2.94-9.48-2.98-14.98-.4,8.2,1.61,15.74,3.3,23.34,4.53,8.96,1.45,18.08,2.03,26.96,3.84,11.21,2.28,22.31,5.11,33.4,7.98,12.08,3.12,23.16,8.22,33.9,14.28,10.07,5.69,19.84,11.9,30.18,17.12,4.36,2.2,8.41,4.84,12.26,7.88,7.69,6.06,14.16,13.35,20.46,20.71,3.45,4.03,7.94,7.07,10.94,11.26,4.45,6.23,10.37,11.08,14.73,17.39,5.51,7.99,12.91,14.52,18.69,22.37,9.47,12.86,17.62,26.49,24.28,41.01,3.18,6.93,7.58,13.25,10.18,20.46,5.02,13.97,12,27.13,16.87,41.17,3.63,10.45,7.23,20.89,8.69,31.92,1.34,10.11,2.47,20.23,3.35,30.39.78,9.03.72,17.85-2.09,26.55-.72,2.24-1.21,4.62-1.37,6.96-1.3,19.54-7.86,37.9-13.58,56.29-3.39,10.89-8.25,21.57-13.68,31.85-4.43,8.39-10.84,15.54-14.54,24.34-1.53,3.64-3.27,7.24-5.86,10.27-7.5,8.76-15.02,17.49-22.96,25.89-5.23,5.54-11.15,10.49-15.53,16.8-7.6,10.94-15.34,21.73-26.6,29.34-.84.57-1.37,1.58-2.12,2.32-9.9,9.83-20.08,19.32-31.7,27.14-3.16,2.13-6.32,4.29-9.26,6.7-6.18,5.07-12.25,10.29-18.31,15.51-5.1,4.39-10.77,7.96-16.38,11.63-9.8,6.41-19.72,12.61-30.11,18.02-3.95,2.06-8.59,3.4-11.92,5.95-4.55,3.49-9.5,4.84-14.64,6.32-1.01.29-2.02.63-2.96,1.09-14.99,7.38-31.15,11.18-47.17,15.43-4.33,1.15-8.64,2.39-12.85,3.9-9.27,3.34-18.71,6.74-28.5,7.02-15.41.43-30.37,3.32-45.18,6.88-13.25,3.19-26.6,4.94-40.11,6.17-13.11,1.19-26.23,1.64-39.38.92-2.37-.13-4.67.68-7.08.31-23.05-3.6-46.39-4.52-69.53-7.33-21.76-2.65-42.87-7.08-63.38-15.03-12.07-4.68-23.88-9.98-36.04-14.49-21.01-7.8-40.48-19.05-59.49-30.79-11.65-7.2-23.77-13.82-34.11-23.18-10.3-9.32-21.01-17.94-28.95-29.72-8.37-12.42-17.19-24.45-24.13-37.83-7.14-13.76-15.14-27.06-21.87-41.06-6.48-13.47-11.62-27.39-14.69-41.98-2.44-11.57-4.87-23.11-8.01-34.51-1.59-5.79-3.89-11.48-3.75-17.71.14-6.47-1.66-12.82-1.8-19.25-.17-7.75-2.84-15.34-1.49-23.13,2.22-12.87,1.89-25.96,3.41-38.88.88-7.46,2.95-14.67,4.78-21.92.74-2.91,3.11-5.15,3.88-8.17,3.15-12.34,6.79-24.52,11.7-36.31,2.16-5.18,5.9-9.28,8.72-13.97,4.04-6.71,7.71-13.68,11.34-20.63,3.84-7.37,8.21-14.59,13.27-20.85,8.13-10.03,16.24-20.2,25.46-29.39,7.17-7.14,13.64-15.4,22.18-20.57,13.26-8.04,23.93-19.06,36.13-28.26,6.59-4.97,12.86-10.37,19.47-15.3,5.9-4.39,12.56-7.65,18.65-11.73,12.75-8.54,25.29-17.41,38.68-24.95,3.78-2.13,6.75-5.43,10.92-6.97,3.43-1.27,7.01-2.5,9.99-4.53,9.03-6.17,19.39-9.17,29.74-10.81,13.32-2.11,26.11-6.14,39.19-9.02,18.04-3.96,36.08-7.44,54.55-8.21,17.09-.71,34.18-1.58,51.3-1.66,7.53-.03,14.98,1.15,22.46,1.08,24.93-.22,49.75.66,74.33,5.3,10.58,2,21.43,2.25,31.95,4.75,1.73.41,3.52,1.28,6.32.22-4.4-.98-7.85-1.72-11.28-2.51-7.15-1.65-14.23-3.71-21.45-4.87-4.46-.71-9.07-.21-13.67-.85-7.53-1.06-15.1-2.22-22.77-2.12-8.14.1-16.24-.96-24.37-1.26-11.53-.43-23.07-.51-34.6-1.07-13.69-.67-27.37.65-41.06.78-8.92.09-17.84-1.65-26.77-.04-.74.13-1.59-.08-2.33-.31-3.08-.95-3.28-2.29-1.31-4.74,3.48-4.32,8.46-2.85,12.65-2.97,4.8-.14,9.71-.46,14.56.08,1.65.18,3.43-.12,4.17-2.21ZM617.99,47.5c-19.89-3.88-39.94-6.18-61-7.01,4.97,2.03,57.93,8.23,61,7.01ZM547.87,40.52c-19.31-1.72-38.65-1.7-57.72-1.23,19,4.11,38.39.69,57.72,1.23ZM636.39,51.34c2.51.24,4.94,2.2,7.57.94-2.43-1.24-4.93-1.68-7.57-.94ZM330.43,725.93c-4.36-2.98-4.64-3.04-8.07-2.31,2.87.82,5.47,1.57,8.07,2.31Z"/>
  <path class="cls-1" d="M104.12,390.03c-.69-10.7.97-21.32,1.61-31.92.78-12.85,4.37-25.32,8-37.7,4.56-15.53,10-30.74,16.03-45.75,1.82-4.54,4.19-8.74,6.69-12.92,3.5-5.85,6.96-11.75,10.04-17.83,2.07-4.09,5.4-7.12,8.08-10.66,8.9-11.78,19.15-22.3,30.26-32.1,8.07-7.11,15.3-15.2,23.5-22.21,9.68-8.27,19.27-16.67,29.31-24.47,7.35-5.71,15.28-10.71,23.12-15.76,10.03-6.46,19.94-13.08,30.13-19.3,8.21-5.02,16.87-9.12,25.17-13.94,11.86-6.89,24.82-11.32,37.69-15.99,6.17-2.24,12.46-4.39,18.72-5.68,10.54-2.16,21.02-4.74,31.74-6.11,22.08-2.82,44.24-4.37,66.43-6.01,15.44-1.14,30.91-1.65,46.11-.07,14.36,1.49,28.67,1.32,42.94,1.48,14.94.17,29.6,2.59,44.44,3.35,10.06.51,20.06,2.76,30,4.68,11.11,2.15,22.31,3.86,33.4,6.07,8.84,1.76,17.65,4.15,26.09,7.29,5.87,2.18,12.19,2.36,17.83,4.87,10.19,4.53,21.89,4.73,31.43,11.1,10.71,7.16,21.88,13.62,32.22,21.35,8,5.98,16.28,11.64,23.46,18.59,8.19,7.93,15.89,16.36,23.81,24.56,2.2,2.27,4.42,4.51,6.65,6.75,5.95,5.97,10.98,12.64,15.59,19.71,3.64,5.57,7.91,10.67,11.11,16.62,5.95,11.07,12.81,21.66,18.82,32.7,6.59,12.09,13.5,24.06,18.54,36.91,2.34,5.97,3.37,12.45,5.53,18.5,5.02,14.07,5.52,28.9,7.65,43.44.65,4.46-.64,9.13-.71,13.76-.15,10.51-.45,21.06-3.4,31.25-3.98,13.72-6.43,27.86-12.58,41-7.81,16.68-15.18,33.71-26.8,48.05-7.71,9.52-13.73,20.1-20.91,29.92-5.93,8.09-12.15,15.99-18.05,24.11-3.76,5.18-6.16,11.34-11.48,15.42-7,5.36-12.91,11.95-19.27,17.99-5.58,5.3-12.31,8.8-17.99,13.77-12.26,10.75-25.52,20.3-37.63,31.23-3.83,3.45-8.27,6.01-12.85,8.4-4.19,2.18-7.33,5.83-11.15,8.6-17.4,12.68-36.7,21.58-56.68,29.01-8.58,3.19-17.68,5.06-26.59,7.39-12.09,3.17-24.41,5.19-36.54,8.18-15.29,3.77-31.03,5.53-46.82,6.63-10.96.77-21.8-.36-32.69-.58-4.29-.09-8.65.85-12.89,1.71-8.42,1.7-16.88,2.45-25.46,2.74-12.22.41-24.38,1.88-36.62,2.11-3.17.06-6.29.37-9.4-.54-1.11-.32-2.37-.51-3.51-.35-16.62,2.37-32.83-1.53-48.95-4.1-11.36-1.81-22.54-5.59-33.35-10.26-11.55-4.99-23.66-8.68-35.45-13.12-13.39-5.04-27.12-9.45-39.92-15.72-9.74-4.77-20.4-8.01-29.01-14.87-3.46-2.76-7.25-4.09-11.28-5.26-.74-.22-1.53-.59-2.06-1.13-5.15-5.14-11.73-8.47-17.1-13.18-5.88-5.15-12.86-8.71-18.52-14.06-11.58-10.94-24.12-20.76-32-35.35-7.7-14.24-15.36-28.49-22.87-42.84-5.57-10.63-10.81-21.3-14.63-32.67-2.39-7.12-3.06-14.63-5.35-21.8-6.26-19.64-9.16-39.91-10.61-60.42-.34-4.86-.69-9.71-1.03-14.57ZM337.95,332.12c10.69.99,19.24-2.96,26.25-10.91,5.45-6.19,11.86-11.59,14.88-19.64,3.88-10.37,5.6-21.09,5.16-32.1-.55-13.54,2.15-26.73,3.74-40.05.76-6.38.98-12.57-3.09-18.15-1.39-1.9-2.36-4.1-3.52-6.17-4.77-8.5-12.48-12.76-21.73-13.89-10.56-1.3-20.6,1.58-30.4,5.37-6.15,2.38-11.64,5.48-14.78,11.65-5.21,10.23-5.61,21.36-2.91,31.86,3.33,12.97,13.43,20.58,26.25,23.42,8.17,1.81,16.75,2.16,24.64-2.26,1.99-1.11,3.57-.87,3.86,1.88.12,1.17.7,2.36.58,3.48-1.04,10-.46,20.13-5.38,29.63-6.86,13.25-16.26,16.2-27.29,13.28-8.55-2.26-15.97-6.73-22.85-12.09-2.85-2.22-5.05-2.05-7.55.51-2.47,2.54-5.08,5.04-8,7.02-2.96,2.01-2.53,3.81-.29,5.59,2.49,1.98,4.44,4.52,6.86,6.51,10.36,8.5,20.95,16.6,35.55,15.07ZM395.07,543.91c-5.75-.76-10.11.11-14.37-1.41-3.36-1.2-6.27-2.92-6.34-6.62-.08-3.88,2.82-5.9,6.29-7.19,14.12-5.26,28.6-8.08,43.72-6.8,2.13.18,3.99,0,4.62-2.53,1.08-4.34,2.56-8.56,3.27-13.01.36-2.26-.32-3.11-2.47-3.44-22.47-3.47-44.17-1.51-64.33,9.74-5.07,2.83-10.04,6.09-13.05,11.68-4.24,7.89-2.38,21.53,4.49,26.39,6.89,4.88,14.21,8.83,22.93,9.89,5.55.67,11.01,2.4,16.41,3.97,2.61.76,5.16,1.93,7.41,3.64,5.83,4.44,5.2,14.04-1.43,17.09-6.2,2.85-12.57,5.31-19.73,4.74-11.55-.92-23.05-2.12-34.32-4.94-1.65-.41-3.73-1.14-4.45,1.04-1.21,3.69-3.76,6.66-5.05,10.26-.51,1.42-1.47,3.17.29,4.31,2.63,1.71,5.27,3.67,8.19,4.63,13.02,4.26,26.67,4.17,40.14,4.94,13.21.75,24.53-4.68,35-12.38,6.97-5.13,10.24-12.02,10.16-20.33-.12-11.71-13.79-31.48-28.19-33.56-3.57-.52-7.11.4-9.17-.11ZM647.89,280.83c11.9.47,22.86-1.52,33.67-7.49,13.87-7.66,22.05-19.13,25.96-33.62,4.91-18.19,1.33-35.71-8.91-51.27-7.34-11.15-18.54-17.36-32.21-16.54-10.24.61-20.5.85-30.74,1.38-2.81.15-3.95,1.14-2.96,3.92.68,1.91.69,3.85.6,5.85-.27,6.02-.57,12.05-.68,18.08-.23,12.66,2,25.26,1,37.95-.48,6.03.58,12.07.02,18.13-.55,5.89-.68,11.82-.95,17.73-.24,5.21.25,5.77,5.33,5.88,3.29.07,6.58.01,9.87.01ZM598.87,237.6c.74-5.03-1.31-9.45-2.67-13.94-4.29-14.17-19.02-25.42-33.35-27.01-8.33-.92-15.95,1.18-23.42,4.18-6.79,2.73-12.64,6.95-17.38,12.6-7.61,9.06-9.44,19.4-7.96,30.99,1.06,8.31,2.29,16.01,8.92,22,4.46,4.03,7.97,9.06,13.94,11.34,11.55,4.41,23.29,3.28,35.06,1.53,2.71-.4,5.33-1.18,7.68-2.88,13.27-9.62,19.45-22.66,19.19-38.82ZM476.56,493.34c-5.24.7-11.12-.48-16.71,1.71-1.48.58-2.82,1.09-2.76,2.83.15,4.07-.96,8.05-.41,12.2.56,4.28.51,8.68.36,13.01-.27,7.5-1.59,15.03-1.1,22.46,1.05,15.6-1.18,31.02-1.7,46.52-.25,7.35-1.15,14.69-1.78,22.03-.23,2.65.77,3.55,3.47,3.01,2.96-.59,6-.79,9.01-1.15,1.7-.2,2.98-.78,3.31-2.75,1.03-6.21,2.21-12.4,3.21-18.61,1.57-9.74,1.64-19.66,3.85-29.33.84-3.7,2.47-5.58,6.47-6.03,12.97-1.46,23.58-6.88,29.89-19.01,4.42-8.49,8.6-16.64,4.22-26.84-4.57-10.63-20.57-19.61-28.57-20.01-3.42-.17-6.85-.03-10.74-.03ZM446.34,284.43c8.7.2,16.3-.77,23.54-3.2,8.93-3,14.52-10.25,19.69-17.58,2.54-3.59,5.37-7.36,5.62-12.01.42-7.67-.54-15.21-2.27-22.72-3.4-14.8-17.48-23.14-30.95-23.27-14.8-.14-27.32,5.3-37.31,16.02-4.26,4.58-8.14,9.95-9.32,16.23-1.38,7.39-2.83,15.02.74,22.39.55,1.14.57,2.56.69,3.87.24,2.6,1.13,4.91,3.05,6.68,7.83,7.22,16.01,13.78,26.52,13.59ZM638.97,343.12c.24-4.4.12-4.86-2.08-4.83-3.81.04-7.63.29-11.44.58-1.85.14-3.44,1.03-3.45,3.12-.04,8.83-2.25,17.48-1.92,26.35.2,5.25.22,10.56-.37,15.77-1.95,17.25-3.72,34.51-4.2,51.88-.05,1.92.23,3.55,2.53,3.66,3.55.17,7.11.24,10.63-.43,2.12-.41,3.25-1.6,3.2-3.8-.18-7.66.64-15.24,1.49-22.84.5-4.54,1.6-5.55,5.3-2.94,9.09,6.41,18.83,11.95,27.16,19.4,6.58,5.88,9.9,5.53,14.09-2,.69-1.25,1.67-2.35,2.55-3.48,1.18-1.52,1.09-2.85-.43-4.1-2.54-2.09-5.12-4.1-7.88-5.92-7.46-4.91-14.9-9.87-22.13-15.1-4.65-3.36-4.6-6.41-.29-10.29,9.47-8.55,18.98-17.05,28.51-25.54,1.46-1.3,2.7-2.68,2.15-4.74-1.1-4.17-4.26-6.82-7.38-9.43-.81-.67-1.82-.11-2.53.49-3.94,3.29-8.43,6.14-11.63,10.04-5.79,7.05-13.79,11.25-20.35,17.26-.98.9-2.3,1.48-3.63.68-1.37-.83-1.07-2.21-.93-3.54,1.04-10.08,2.03-20.16,3.04-30.23ZM495.89,370.93c.05-1.18.19-2.37.15-3.55-.31-11.15.91-9.29-9.16-9.6-5.79-.18-6.89.77-7.59,6.58-.7,5.87-1.23,11.77-1.53,17.67-.47,9.26-2.57,18.28-3.78,27.42-.72,5.42-4.78,9.35-8.41,13.06-3.27,3.35-7.95,3.09-11.47-.01-2.48-2.18-4.61-4.85-5.23-8.19-1.75-9.35-2.06-18.86-1.74-28.31.23-6.82.57-13.63.5-20.47-.03-2.76-1.18-4.1-4.04-4.11-4.34-.02-8.69-.11-13.03-.34-4.64-.25-5.67.45-6.01,5.04-.89,12.37-.08,24.65,1.62,36.92,1.6,11.53,6.32,21.66,13.4,30.62,6.08,7.68,14.72,10.09,24.1,8.73,13.9-2.02,24.96-12.72,27.41-27.55,2.4-14.52,4.91-29.1,4.8-43.92ZM570.12,570.6c.62.06,1.67.24,2.72.23,9.53-.1,17.37-3.91,22.91-11.57,6.01-8.3,7.26-18.11,7.7-28.08.25-5.63-.55-10.74-3.62-15.77-9.52-15.58-18.62-17.86-35.57-16.21-3.82.37-6.46,3.33-9.92,4.65-12.93,4.94-18.45,15.83-20.1,28.46-1.15,8.8,1.55,17.58,5.53,25.55,1.76,3.52,4.59,6.61,8.42,8.58,6.81,3.5,14.13,3.83,21.93,4.16ZM574.44,418.34s0,.06,0,.1c-2.37,0-4.74,0-7.11,0-7.18-.03-14.17-.99-20.79-3.98-3.86-1.75-5.61-4.43-5.82-8.88-.54-11.36,10.85-24.16,19.48-28.17,6.98-3.24,14.41-5.06,22.02-6.02,3.19-.4,4.23-1.92,3.95-5.01-.28-3.01-.18-6.05-.2-9.08-.01-2.46-1.18-3.72-3.65-3.52-7.86.63-15.95.86-23.18,4.14-12.53,5.68-24,12.85-32.53,24.25-8.18,10.94-9.81,22.84-4.24,34.59,5.14,10.85,14.8,17.06,27.43,17.68,11.48.56,22.87.25,34.24-1.58,7.48-1.2,8.29-2.17,6.88-9.5-.1-.52-.24-1.03-.33-1.55-.4-2.46-1.66-3.61-4.32-3.5-3.94.17-7.9.04-11.85.04ZM631.42,506.47c.38,0,1.56.03,2.74,0,5.77-.16,5.68-.15,6.59,5.64,2.64,16.78,3.38,33.73,4.61,50.63.88,12.01.86,12.23,12.9,11.6.13,0,.26-.01.39-.01,2.3.07,3.27-.92,3.24-3.33-.08-5.53.29-11.07.06-16.58-.67-15.63-1.48-31.25-2.39-46.87-.21-3.56.73-5.24,4.59-5.64,8.76-.92,17.46-2.42,26.27-2.88,1.38-.07,3.62.01,3.46-1.76-.36-4.02.34-8.19-1.28-12.08-.46-1.09-1.29-1.65-2.44-1.68-2.61-.07-5.07,0-7.66,1.14-3.77,1.68-7.85,4.22-11.95.3-.85-.81-2.02-.18-3.05-.13-7.35.4-14.75.39-22.03,1.3-8.63,1.08-17.35.93-25.93,2.47-2.84.51-3.96,2.07-4.28,4.78-.42,3.49.89,6.77.97,10.19.06,2.74,1.58,3.62,4.16,3.36,3.4-.35,6.78-1.01,11.03-.45ZM339.29,436.28c0,2.5.02,5,0,7.49-.12,11.13-.14,10.97,11.2,10.05,15.59-1.27,31.28-1.2,46.82-3.13,13.35-1.66,12.78,2.67,14.1-13.54.28-3.39-.88-4.3-4.07-4.54-10.21-.76-20.17,1.57-30.27,2.09-4.32.22-8.66.43-12.9,1.58-4.13,1.12-6.07-.64-5.4-4.99.91-5.87.55-11.79,1-17.68,1.01-13.13-1.4-26.26-.66-39.43.15-2.67-1.25-3.92-3.74-4.03-3.68-.17-7.36-.23-11.05-.3-1.53-.03-2.73.74-2.58,2.32.52,5.75-1.66,11.21-1.76,16.83-.27,15.76-2,31.49-.69,47.27Z"/>
  <path class="cls-1" d="M463.07,39.69c-.74,2.09-2.51,2.39-4.17,2.21-4.86-.54-9.76-.22-14.56-.08-4.18.12-9.17-1.35-12.65,2.97-1.98,2.46-1.78,3.79,1.31,4.74.74.23,1.59.44,2.33.31,8.93-1.62,17.84.12,26.77.04,13.69-.13,27.37-1.45,41.06-.78,11.53.56,23.07.64,34.6,1.07,8.14.3,16.23,1.37,24.37,1.26,7.67-.1,15.24,1.06,22.77,2.12,4.6.65,9.21.14,13.67.85,7.22,1.16,14.3,3.22,21.45,4.87,3.44.8,6.88,1.53,11.28,2.51-2.8,1.06-4.59.19-6.32-.22-10.52-2.5-21.37-2.75-31.95-4.75-24.58-4.65-49.4-5.53-74.33-5.3-7.48.07-14.93-1.11-22.46-1.08-17.12.07-34.21.94-51.3,1.66-18.47.77-36.5,4.25-54.55,8.21-13.08,2.87-25.87,6.91-39.19,9.02-10.35,1.64-20.71,4.65-29.74,10.81-2.98,2.03-6.56,3.27-9.99,4.53-4.17,1.54-7.14,4.84-10.92,6.97-13.38,7.54-25.92,16.41-38.68,24.95-6.09,4.08-12.76,7.33-18.65,11.73-6.62,4.93-12.88,10.33-19.47,15.3-12.2,9.2-22.87,20.22-36.13,28.26-8.54,5.17-15.01,13.43-22.18,20.57-9.23,9.18-17.34,19.35-25.46,29.39-5.06,6.25-9.43,13.48-13.27,20.85-3.63,6.95-7.29,13.92-11.34,20.63-2.83,4.69-6.57,8.78-8.72,13.97-4.91,11.79-8.55,23.97-11.7,36.31-.77,3.02-3.14,5.25-3.88,8.17-1.83,7.25-3.9,14.46-4.78,21.92-1.52,12.93-1.19,26.01-3.41,38.88-1.34,7.79,1.32,15.38,1.49,23.13.14,6.43,1.94,12.78,1.8,19.25-.14,6.23,2.16,11.92,3.75,17.71,3.14,11.41,5.58,22.95,8.01,34.51,3.07,14.59,8.21,28.5,14.69,41.98,6.73,14,14.73,27.3,21.87,41.06,6.94,13.38,15.76,25.41,24.13,37.83,7.94,11.78,18.65,20.4,28.95,29.72,10.34,9.36,22.46,15.98,34.11,23.18,19,11.74,38.48,22.99,59.49,30.79,12.15,4.52,23.97,9.81,36.04,14.49,20.51,7.95,41.62,12.39,63.38,15.03,23.15,2.82,46.48,3.74,69.53,7.33,2.41.38,4.72-.44,7.08-.31,13.15.72,26.27.28,39.38-.92,13.5-1.23,26.86-2.99,40.11-6.17,14.81-3.56,29.76-6.45,45.18-6.88,9.79-.28,19.23-3.67,28.5-7.02,4.21-1.52,8.52-2.76,12.85-3.9,16.02-4.25,32.17-8.05,47.17-15.43.94-.46,1.95-.8,2.96-1.09,5.14-1.48,10.09-2.83,14.64-6.32,3.33-2.55,7.97-3.89,11.92-5.95,10.38-5.41,20.31-11.61,30.11-18.02,5.61-3.67,11.28-7.24,16.38-11.63,6.06-5.22,12.13-10.43,18.31-15.51,2.94-2.41,6.1-4.57,9.26-6.7,11.62-7.82,21.8-17.31,31.7-27.14.74-.74,1.27-1.75,2.12-2.32,11.26-7.62,19.01-18.4,26.6-29.34,4.38-6.31,10.3-11.26,15.53-16.8,7.93-8.39,15.45-17.13,22.96-25.89,2.59-3.02,4.32-6.63,5.86-10.27,3.71-8.79,10.11-15.95,14.54-24.34,5.43-10.28,10.29-20.95,13.68-31.85,5.72-18.39,12.29-36.75,13.58-56.29.16-2.34.64-4.73,1.37-6.96,2.82-8.7,2.87-17.52,2.09-26.55-.88-10.16-2.01-20.29-3.35-30.39-1.46-11.03-5.06-21.47-8.69-31.92-4.87-14.04-11.85-27.2-16.87-41.17-2.59-7.21-7-13.53-10.18-20.46-6.65-14.52-14.81-28.15-24.28-41.01-5.78-7.85-13.17-14.38-18.69-22.37-4.36-6.32-10.27-11.17-14.73-17.39-3-4.19-7.49-7.23-10.94-11.26-6.3-7.37-12.77-14.65-20.46-20.71-3.85-3.04-7.9-5.68-12.26-7.88-10.34-5.21-20.11-11.43-30.18-17.12-10.74-6.06-21.82-11.15-33.9-14.28-11.09-2.87-22.19-5.7-33.4-7.98-8.88-1.81-18-2.39-26.96-3.84-7.61-1.23-15.14-2.92-23.34-4.53,5.51-2.58,10.36-2.54,14.98.4,3.5,2.23,6.59.12,9.74-.66,1.64-.41.93-1.85.13-2.86-2.04-2.58-4.72-4.19-7.89-4.87-1.79-.38-3.59-.59-5.86-2.56,5.78.87,10.68,1.41,15.49,2.4,2.76.57,5.52,1.3,8.17.41,7.6-2.54,14.78,0,21.87,1.83,9.47,2.43,19.08,4.36,28.32,7.68,9.24,3.32,18.41,6.67,27.27,11.01,2.74,1.34,5.7,4.08,9.73,2.67,1.35-.47,3.48.82,5.08,1.65,18.42,9.6,36.31,20.26,52.87,32.69,10.11,7.59,20.29,15.9,25.58,28.34,1.74,4.1,5.72,6.81,8.39,10.37,9.97,13.28,20.67,26.01,29.57,40.08,3.29,5.19,6.74,10.32,10.95,14.87,4.55,4.93,5.9,11.64,9.45,17.14.42.65.65,1.43,1.1,2.05,11.85,16.28,20.86,34.25,26.35,53.37,3.76,13.09,9.26,25.77,11.17,39.37.68,4.87,2.03,9.82,2.18,14.51.34,10.92,1.23,21.95-.89,32.88-.62,3.18-.28,6.58-.1,9.86.56,10.18-.25,20.51-2.94,30.03-3.39,11.97-3.01,24.78-8.87,36.18-4.71,9.15-6.06,19.65-11.03,28.83-9.2,17.01-18.08,34.2-29.25,50.04-5.71,8.09-11.8,15.92-17.83,23.77-1.22,1.59-2.44,3.63-5.31,2.21-1.4-.69-2.59.72-3.57,1.87-8.34,9.9-16.18,20.3-25.25,29.47-5.65,5.72-10.95,12.04-17.96,16.44-4.85,3.04-7.81,8.12-11.76,12.16-6.44,6.58-13.2,12.79-20.27,18.68-7.11,5.92-14.12,11.97-21.17,17.97-6.29,5.36-13.69,8.94-20.8,12.96-2.05,1.16-4.1,2.26-6.07,3.56-10.99,7.3-22.04,14.5-34.82,18.45-1.11.34-2.24.86-3.15,1.56-9.73,7.56-21.12,11.83-32.26,16.67-3.4,1.47-6.33,3.99-9.53,5.95-5.69,3.49-11.76,6.7-18.1,8.16-18.95,4.34-37.23,11.49-56.65,13.83-6.53.79-13.14.33-19.69,1.41-10.28,1.7-20.42,4.08-30.47,6.68-5.25,1.36-10.47.76-15.65,1.16-6.31.48-12.34,2.02-18.53,2.86-9.41,1.28-18.89,1.51-28.37,1.81-23.14.74-45.92-3.27-68.82-5.37-9.47-.87-18.97-2.36-28.44-3.65-28.55-3.91-55.98-11.87-82.73-22.38-4.16-1.64-8.48-2.96-12.5-4.89-15.98-7.68-32.26-14.72-48.04-22.86-10.42-5.37-19.5-12.75-29.85-18.04-6.85-3.5-12.89-8.09-18.86-12.75-9.41-7.34-17.8-15.82-25.86-24.62-13.63-14.89-24.71-31.44-34.14-49.3-6.29-11.9-10.72-24.71-18.04-36.07-8.06-12.51-11.68-26.99-17.82-40.37-4.53-9.88-5.76-21.07-8.12-31.76-1.42-6.47-2.71-12.98-3.73-19.53-.33-2.11.39-4.37.63-6.57.74-6.77-1.22-13.29-2.02-19.89-1.33-11.03-3.01-21.97-2.08-33.14.21-2.57-.49-5.21-.64-7.82-.36-6.34,1.1-12.44,2.21-18.64,1.56-8.72,2.33-17.56,4.29-26.25,2.76-12.25,9.29-22.96,13.45-34.61,2.9-8.11,5.36-16.39,8.45-24.43,4.1-10.68,9.84-20.48,16.45-29.86,4.8-6.81,8.41-14.46,13.11-21.35,3.61-5.29,7.8-10.27,12.26-14.89,6.76-7.01,13.14-14.24,19.02-22.05,7.16-9.5,15.08-18.33,24.44-26.05,12.41-10.23,25.06-20.19,37.36-30.57,10.98-9.27,21.89-18.74,33.79-26.88,6.57-4.49,13.43-8.58,20.19-12.79,13.72-8.55,28.78-14.5,42.62-22.76,3.17-1.89,6.85-2.46,10.28-3.68,10.82-3.84,21.47-8.25,32.44-11.61,11.55-3.54,23.23-6.92,35.37-8,5.07-.45,9.84-2.58,14.99-2.5.64,0,1.57-.42,1.88-.14,4.01,3.81,8.1.9,12.2.33,6.94-.97,13.93-1.51,20.93-1.97,4.67-.31,9.46.35,14.09-1.02,1.28-.38,2.82-.51,4.22.36ZM409.33,48.71c-.91.07-1.84.04-2.73.22-1.12.24-2.66.33-2.63,1.85.03,1.68,1.63,1.34,2.74,1.49,2.87.38,5.78-.7,8.62.15,1.37.41,2.35.11,3.07-1,1.21-1.87,3.16-2.12,5.08-2.64,1.42-.39,4.22-.03,3.94-1.59-.4-2.26-3.03-1.01-4.74-1.08-.51-.02-1.05.31-1.55.26-4.19-.42-7.64,2.72-11.8,2.34Z"/>
  <path class="cls-1" d="M617.99,47.5c-3.07,1.22-56.04-4.98-61-7.01,21.07.83,41.11,3.13,61,7.01Z"/>
  <path class="cls-1" d="M547.87,40.52c-19.33-.53-38.72,2.88-57.72-1.23,19.07-.47,38.41-.49,57.72,1.23Z"/>
  <path class="cls-1" d="M636.39,51.34c2.64-.74,5.13-.3,7.57.94-2.63,1.26-5.06-.69-7.57-.94Z"/>
  <path class="cls-1" d="M330.43,725.93c-2.6-.74-5.2-1.49-8.07-2.31,3.42-.73,3.7-.66,8.07,2.31Z"/>
  <path class="cls-2" d="M337.95,332.12c-14.6,1.53-25.19-6.57-35.55-15.07-2.42-1.99-4.37-4.53-6.86-6.51-2.24-1.78-2.67-3.58.29-5.59,2.92-1.98,5.52-4.48,8-7.02,2.5-2.56,4.7-2.74,7.55-.51,6.89,5.37,14.3,9.83,22.85,12.09,11.02,2.92,20.42-.03,27.29-13.28,4.92-9.5,4.34-19.63,5.38-29.63.12-1.13-.46-2.31-.58-3.48-.29-2.74-1.87-2.99-3.86-1.88-7.89,4.42-16.47,4.06-24.64,2.26-12.82-2.83-22.92-10.45-26.25-23.42-2.7-10.5-2.31-21.63,2.91-31.86,3.14-6.17,8.64-9.27,14.78-11.65,9.8-3.79,19.84-6.67,30.4-5.37,9.25,1.14,16.96,5.4,21.73,13.89,1.16,2.07,2.13,4.27,3.52,6.17,4.07,5.58,3.85,11.77,3.09,18.15-1.59,13.31-4.29,26.51-3.74,40.05.45,11.01-1.28,21.74-5.16,32.1-3.02,8.05-9.43,13.46-14.88,19.64-7.01,7.96-15.57,11.9-26.25,10.91ZM348.54,248.89c10.56-.08,17.85-5.48,21.33-15.72,2.09-6.16,1.04-11.8-3.39-16.41-9.1-9.48-26.57-6.43-33.44,2.56-3.14,4.11-5.47,9.65-4.08,14.78,2.46,9.11,9.53,14.38,19.57,14.79Z"/>
  <path class="cls-2" d="M395.07,543.91c2.05.51,5.59-.41,9.17.11,14.4,2.08,28.08,21.85,28.19,33.56.08,8.31-3.19,15.2-10.16,20.33-10.46,7.71-21.79,13.14-35,12.38-13.46-.77-27.11-.68-40.14-4.94-2.93-.96-5.56-2.92-8.19-4.63-1.76-1.14-.79-2.89-.29-4.31,1.28-3.6,3.84-6.57,5.05-10.26.71-2.18,2.79-1.45,4.45-1.04,11.27,2.82,22.77,4.02,34.32,4.94,7.16.57,13.53-1.89,19.73-4.74,6.63-3.05,7.26-12.64,1.43-17.09-2.24-1.71-4.79-2.88-7.41-3.64-5.4-1.58-10.86-3.3-16.41-3.97-8.72-1.06-16.03-5-22.93-9.89-6.86-4.86-8.73-18.5-4.49-26.39,3.01-5.59,7.98-8.85,13.05-11.68,20.16-11.25,41.86-13.21,64.33-9.74,2.16.33,2.83,1.18,2.47,3.44-.7,4.45-2.18,8.67-3.27,13.01-.63,2.54-2.49,2.71-4.62,2.53-15.12-1.27-29.6,1.54-43.72,6.8-3.47,1.29-6.37,3.32-6.29,7.19.08,3.7,2.99,5.41,6.34,6.62,4.26,1.53,8.62.65,14.37,1.41Z"/>
  <path class="cls-2" d="M647.89,280.83c-3.29,0-6.58.06-9.87-.01-5.08-.12-5.57-.67-5.33-5.88.27-5.91.4-11.84.95-17.73.56-6.07-.5-12.1-.02-18.13,1.01-12.69-1.23-25.29-1-37.95.11-6.03.41-12.05.68-18.08.09-1.99.08-3.94-.6-5.85-.99-2.78.15-3.77,2.96-3.92,10.24-.53,20.49-.77,30.74-1.38,13.67-.82,24.87,5.4,32.21,16.54,10.24,15.55,13.83,33.07,8.91,51.27-3.91,14.49-12.09,25.96-25.96,33.62-10.82,5.98-21.77,7.97-33.67,7.49ZM690.45,229.91c.02-8.28-1.04-16.62-6.22-24.26-7.13-10.51-17.47-12.01-28.75-11.7-2.76.08-3.49,2.2-3.61,4.36-.17,3,.04,6.02.06,9.03.06,9.84,1.1,19.63.73,29.51-.24,6.38.24,12.81-.23,19.22-.21,2.83,1.01,4.59,4.18,5.12,15.43,2.58,36.93-15.26,33.85-31.3Z"/>
  <path class="cls-2" d="M598.87,237.6c.26,16.16-5.92,29.2-19.19,38.82-2.35,1.7-4.97,2.48-7.68,2.88-11.77,1.75-23.51,2.88-35.06-1.53-5.97-2.28-9.48-7.31-13.94-11.34-6.63-5.99-7.86-13.7-8.92-22-1.47-11.6.36-21.93,7.96-30.99,4.74-5.65,10.58-9.88,17.38-12.6,7.48-3,15.09-5.1,23.42-4.18,14.33,1.58,29.06,12.83,33.35,27.01,1.36,4.49,3.41,8.91,2.67,13.94ZM558.67,219.25c-1.31,0-2.63.02-3.94,0-6.34-.12-11.57,1.94-15.09,7.53-.76,1.21-1.79,2.28-2.77,3.33-3.63,3.91-4.42,8.53-3.4,13.58,1.11,5.5,4.46,9.55,8.24,13.56,6.05,6.39,18.58,9.07,26.14,4.45,8.37-5.12,12.5-12.72,12-22.81-.35-7.22-4.96-11.95-9.03-17.03-3.25-4.05-7.93-2.59-12.15-2.61Z"/>
  <path class="cls-2" d="M476.56,493.34c3.9,0,7.33-.14,10.74.03,8.01.41,24,9.38,28.57,20.01,4.38,10.2.2,18.35-4.22,26.84-6.32,12.13-16.92,17.54-29.89,19.01-3.99.45-5.62,2.33-6.47,6.03-2.21,9.67-2.28,19.6-3.85,29.33-1,6.22-2.18,12.4-3.21,18.61-.33,1.97-1.61,2.55-3.31,2.75-3.01.36-6.05.57-9.01,1.15-2.7.54-3.7-.35-3.47-3.01.63-7.34,1.54-14.67,1.78-22.03.52-15.5,2.75-30.91,1.7-46.52-.5-7.43.83-14.97,1.1-22.46.15-4.33.2-8.73-.36-13.01-.54-4.15.57-8.13.41-12.2-.07-1.74,1.28-2.25,2.76-2.83,5.59-2.19,11.47-1.01,16.71-1.71ZM472.54,527.59c-.11,0-.21,0-.32,0,0,3.03-.15,6.06.04,9.08.19,3.17,1.85,4.91,5.26,5.21,3.45.31,6.45-1.13,9.64-1.8,4.86-1.03,11.25-8.49,11.69-13.43.08-.88-.11-1.84-.4-2.69-2.79-8.09-14.7-14.69-23.09-12.79-1.6.36-2.94.84-2.86,3.04.15,4.46.05,8.93.05,13.4Z"/>
  <path class="cls-2" d="M446.34,284.43c-10.5.19-18.68-6.37-26.52-13.59-1.92-1.77-2.81-4.08-3.05-6.68-.12-1.31-.14-2.73-.69-3.87-3.58-7.37-2.13-15-.74-22.39,1.17-6.28,5.05-11.65,9.32-16.23,9.99-10.72,22.51-16.16,37.31-16.02,13.47.13,27.55,8.47,30.95,23.27,1.72,7.51,2.68,15.05,2.27,22.72-.25,4.65-3.08,8.42-5.62,12.01-5.18,7.33-10.76,14.58-19.69,17.58-7.24,2.43-14.84,3.4-23.54,3.2ZM450.68,266.53c8.67.23,15.16-2.49,20.66-7.66,6.66-6.27,5.47-19.23,1.94-26.36-1.48-3-3.44-5.61-6.89-6.66-6.31-1.92-12.6-1.37-18.6.84-9.46,3.49-12.36,12.04-14.35,20.76-.67,2.92-.59,6.37.97,9.28,3.69,6.89,9.25,10.63,16.28,9.81Z"/>
  <path class="cls-2" d="M638.97,343.12c-1.01,10.08-2,20.16-3.04,30.23-.14,1.34-.44,2.71.93,3.54,1.33.8,2.65.22,3.63-.68,6.56-6,14.56-10.21,20.35-17.26,3.2-3.9,7.69-6.75,11.63-10.04.72-.6,1.73-1.16,2.53-.49,3.12,2.61,6.28,5.26,7.38,9.43.54,2.05-.7,3.44-2.15,4.74-9.53,8.49-19.04,16.99-28.51,25.54-4.31,3.89-4.36,6.93.29,10.29,7.23,5.23,14.67,10.18,22.13,15.1,2.76,1.82,5.34,3.83,7.88,5.92,1.52,1.25,1.62,2.58.43,4.1-.88,1.14-1.86,2.24-2.55,3.48-4.18,7.52-7.5,7.88-14.09,2-8.33-7.44-18.06-12.99-27.16-19.4-3.7-2.61-4.8-1.6-5.3,2.94-.84,7.6-1.66,15.18-1.49,22.84.05,2.21-1.07,3.4-3.2,3.8-3.53.68-7.08.6-10.63.43-2.29-.11-2.58-1.74-2.53-3.66.48-17.37,2.25-34.63,4.2-51.88.59-5.21.56-10.52.37-15.77-.33-8.87,1.88-17.53,1.92-26.35,0-2.1,1.6-2.98,3.45-3.12,3.81-.29,7.62-.54,11.44-.58,2.2-.03,2.31.43,2.08,4.83Z"/>
  <path class="cls-2" d="M495.89,370.93c.11,14.82-2.4,29.41-4.8,43.92-2.45,14.83-13.51,25.53-27.41,27.55-9.38,1.36-18.03-1.05-24.1-8.73-7.09-8.96-11.8-19.09-13.4-30.62-1.7-12.28-2.51-24.56-1.62-36.92.33-4.59,1.37-5.29,6.01-5.04,4.34.24,8.69.33,13.03.34,2.85.01,4.01,1.35,4.04,4.11.07,6.83-.27,13.64-.5,20.47-.32,9.44,0,18.96,1.74,28.31.63,3.34,2.75,6.01,5.23,8.19,3.53,3.1,8.2,3.36,11.47.01,3.63-3.71,7.69-7.64,8.41-13.06,1.21-9.15,3.31-18.17,3.78-27.42.3-5.9.82-11.8,1.53-17.67.7-5.81,1.8-6.75,7.59-6.58,10.07.31,8.85-1.55,9.16,9.6.03,1.18-.1,2.37-.15,3.55Z"/>
  <path class="cls-2" d="M570.12,570.6c-7.8-.33-15.12-.66-21.93-4.16-3.83-1.97-6.66-5.06-8.42-8.58-3.98-7.97-6.68-16.75-5.53-25.55,1.65-12.63,7.17-23.52,20.1-28.46,3.46-1.32,6.1-4.28,9.92-4.65,16.96-1.65,26.05.63,35.57,16.21,3.07,5.03,3.87,10.13,3.62,15.77-.44,9.97-1.69,19.78-7.7,28.08-5.54,7.66-13.38,11.47-22.91,11.57-1.05.01-2.1-.17-2.72-.23ZM570.93,520.88c-3.6.13-7.06.52-10.3,2.33-10.32,5.78-12.39,21.27-2.81,26.6,13.72,7.63,25.79,2.78,28.71-13.43,1.43-7.91-2.35-12.77-10.14-14.9-1.74-.48-3.63-.42-5.46-.61Z"/>
  <path class="cls-2" d="M574.44,418.34c3.95,0,7.91.13,11.85-.04,2.65-.12,3.92,1.04,4.32,3.5.08.52.23,1.03.33,1.55,1.41,7.33.6,8.3-6.88,9.5-11.36,1.83-22.76,2.14-34.24,1.58-12.63-.62-22.29-6.82-27.43-17.68-5.57-11.74-3.94-23.65,4.24-34.59,8.53-11.4,19.99-18.57,32.53-24.25,7.24-3.28,15.32-3.51,23.18-4.14,2.47-.2,3.64,1.06,3.65,3.52.02,3.03-.08,6.07.2,9.08.28,3.09-.76,4.61-3.95,5.01-7.61.97-15.04,2.78-22.02,6.02-8.64,4.01-20.03,16.81-19.48,28.17.21,4.46,1.96,7.14,5.82,8.88,6.62,3,13.61,3.96,20.79,3.98,2.37,0,4.74,0,7.11,0,0-.03,0-.06,0-.1Z"/>
  <path class="cls-2" d="M631.42,506.47c-4.25-.57-7.63.1-11.03.45-2.58.27-4.1-.62-4.16-3.36-.08-3.42-1.39-6.7-.97-10.19.32-2.71,1.44-4.27,4.28-4.78,8.58-1.54,17.3-1.4,25.93-2.47,7.28-.91,14.68-.9,22.03-1.3,1.03-.06,2.21-.68,3.05.13,4.1,3.92,8.18,1.38,11.95-.3,2.59-1.15,5.05-1.21,7.66-1.14,1.15.03,1.98.59,2.44,1.68,1.62,3.89.92,8.05,1.28,12.08.16,1.77-2.08,1.69-3.46,1.76-8.82.46-17.51,1.95-26.27,2.88-3.85.4-4.79,2.09-4.59,5.64.91,15.62,1.72,31.24,2.39,46.87.23,5.52-.14,11.06-.06,16.58.04,2.41-.94,3.4-3.24,3.33-.13,0-.26,0-.39.01-12.04.63-12.02.41-12.9-11.6-1.24-16.9-1.98-33.85-4.61-50.63-.91-5.79-.82-5.8-6.59-5.64-1.18.03-2.36,0-2.74,0Z"/>
  <path class="cls-2" d="M339.29,436.28c-1.31-15.78.42-31.51.69-47.27.1-5.62,2.28-11.08,1.76-16.83-.14-1.59,1.05-2.35,2.58-2.32,3.68.06,7.37.13,11.05.3,2.49.11,3.89,1.36,3.74,4.03-.74,13.17,1.67,26.3.66,39.43-.45,5.89-.09,11.81-1,17.68-.68,4.34,1.27,6.11,5.4,4.99,4.25-1.16,8.59-1.36,12.9-1.58,10.1-.51,20.06-2.84,30.27-2.09,3.19.24,4.35,1.15,4.07,4.54-1.32,16.2-.75,11.87-14.1,13.54-15.54,1.93-31.23,1.86-46.82,3.13-11.35.93-11.33,1.09-11.2-10.05.03-2.5,0-4.99,0-7.49Z"/>
  <path class="cls-2" d="M409.33,48.71c4.16.38,7.6-2.76,11.8-2.34.5.05,1.04-.28,1.55-.26,1.71.07,4.34-1.18,4.74,1.08.28,1.56-2.52,1.2-3.94,1.59-1.92.53-3.87.77-5.08,2.64-.72,1.11-1.7,1.42-3.07,1-2.83-.86-5.75.22-8.62-.15-1.11-.15-2.7.2-2.74-1.49-.03-1.53,1.51-1.62,2.63-1.85.89-.19,1.82-.16,2.73-.22Z"/>
  <path class="cls-1" d="M348.54,248.89c-10.05-.41-17.11-5.68-19.57-14.79-1.39-5.13.94-10.67,4.08-14.78,6.87-8.99,24.33-12.03,33.44-2.56,4.43,4.61,5.48,10.25,3.39,16.41-3.47,10.24-10.77,15.64-21.33,15.72Z"/>
  <path class="cls-1" d="M690.45,229.91c3.08,16.03-18.42,33.88-33.85,31.3-3.16-.53-4.38-2.29-4.18-5.12.47-6.42,0-12.85.23-19.22.37-9.88-.67-19.67-.73-29.51-.02-3.01-.23-6.03-.06-9.03.12-2.16.85-4.29,3.61-4.36,11.28-.31,21.62,1.19,28.75,11.7,5.18,7.64,6.24,15.98,6.22,24.26Z"/>
  <path class="cls-1" d="M558.67,219.25c4.22.02,8.9-1.44,12.15,2.61,4.08,5.08,8.68,9.82,9.03,17.03.49,10.09-3.64,17.69-12,22.81-7.56,4.62-20.09,1.94-26.14-4.45-3.79-4-7.13-8.05-8.24-13.56-1.02-5.04-.23-9.67,3.4-13.58.98-1.06,2-2.12,2.77-3.33,3.52-5.59,8.75-7.65,15.09-7.53,1.31.02,2.63,0,3.94,0Z"/>
  <path class="cls-1" d="M472.54,527.59c0-4.47.11-8.94-.05-13.4-.08-2.2,1.27-2.68,2.86-3.04,8.38-1.89,20.3,4.7,23.09,12.79.29.85.48,1.81.4,2.69-.44,4.93-6.83,12.4-11.69,13.43-3.19.68-6.19,2.11-9.64,1.8-3.41-.3-5.07-2.04-5.26-5.21-.19-3.01-.04-6.05-.04-9.08.11,0,.21,0,.32,0Z"/>
  <path class="cls-1" d="M450.68,266.53c-7.02.82-12.58-2.92-16.28-9.81-1.56-2.91-1.64-6.36-.97-9.28,1.99-8.72,4.89-17.27,14.35-20.76,5.99-2.21,12.29-2.76,18.6-.84,3.46,1.05,5.41,3.67,6.89,6.66,3.54,7.13,4.72,20.09-1.94,26.36-5.49,5.17-11.98,7.89-20.66,7.66Z"/>
  <path class="cls-1" d="M570.93,520.88c1.82.19,3.71.13,5.46.61,7.79,2.13,11.57,6.99,10.14,14.9-2.92,16.21-14.99,21.06-28.71,13.43-9.58-5.33-7.51-20.83,2.81-26.6,3.24-1.81,6.7-2.2,10.3-2.33Z"/>
</svg>